<?xml version="1.0" standalone="no"?>
<!DOCTYPE svg PUBLIC "-//W3C//DTD SVG 20010904//EN"
 "http://www.w3.org/TR/2001/REC-SVG-20010904/DTD/svg10.dtd">
<svg version="1.0" xmlns="http://www.w3.org/2000/svg"
 width="913.000000pt" height="578.000000pt" viewBox="0 0 913.000000 578.000000"
 preserveAspectRatio="xMidYMid meet">
<metadata>
Created by potrace 1.16, written by Peter Selinger 2001-2019
</metadata>
<g transform="translate(0.000000,578.000000) scale(0.100000,-0.100000)"
fill="#000000" stroke="none">
<path d="M3356 5760 c-8 -23 -9 -24 -16 -5 -6 16 -13 8 -38 -45 -30 -63 -31
-67 -21 -140 17 -132 23 -566 10 -721 -30 -347 -78 -602 -180 -953 -46 -156
-80 -239 -168 -405 -124 -235 -228 -389 -389 -571 -355 -406 -859 -756 -1328
-925 -192 -69 -168 -74 -257 63 -206 315 -395 528 -544 612 -71 40 -87 45
-142 45 -57 0 -65 -3 -97 -34 -46 -45 -88 -126 -130 -252 -57 -171 -70 -307
-41 -442 25 -121 89 -209 197 -274 145 -87 345 -84 754 14 17 4 33 -16 102
-125 132 -210 326 -470 488 -658 l53 -60 -106 -263 c-57 -145 -103 -264 -101
-266 2 -3 30 60 63 138 94 228 159 371 162 360 2 -5 -28 -88 -67 -183 -38 -95
-69 -175 -67 -177 2 -1 37 76 77 172 l74 175 145 -143 c320 -316 602 -495 959
-612 338 -110 634 -94 868 46 199 120 373 347 483 630 78 199 111 355 111 520
0 191 -85 453 -212 652 l-43 67 -112 0 c-62 0 -113 -1 -113 -3 0 -2 25 -30 56
-62 314 -337 421 -856 248 -1201 -118 -237 -346 -432 -581 -496 -105 -29 -346
-31 -478 -5 -301 61 -603 206 -865 415 -114 91 -380 349 -380 369 0 36 214
430 334 613 155 237 322 377 587 493 41 17 76 35 79 38 3 4 54 19 113 34 91
23 130 27 245 27 120 0 150 -3 237 -27 82 -23 125 -29 240 -32 77 -2 158 0
180 5 l40 8 -75 53 c-171 120 -337 179 -530 188 -240 11 -460 -57 -700 -214
-228 -151 -446 -446 -687 -932 l-107 -214 -38 44 c-207 236 -507 651 -495 682
3 7 42 25 88 41 394 138 798 411 1169 792 175 179 293 337 432 574 221 378
398 883 487 1390 45 254 56 408 55 765 -1 321 -11 467 -28 415z m-3009 -3261
c59 -28 214 -177 312 -299 118 -147 225 -300 215 -309 -17 -15 -179 -42 -285
-48 -301 -16 -453 90 -490 341 -9 60 -9 101 0 173 13 109 20 127 64 154 40 25
117 20 184 -12z"/>
<path d="M8222 4060 c-268 -72 -585 -352 -789 -699 -66 -110 -126 -246 -153
-343 -32 -115 -176 -344 -276 -440 -129 -122 -295 -161 -378 -88 -42 38 -98
159 -131 285 -27 107 -70 355 -81 470 l-6 70 79 80 c106 108 187 181 256 234
32 24 68 55 80 67 12 13 25 24 29 24 3 0 43 26 88 58 45 31 110 71 143 88 l62
31 42 -38 c52 -48 93 -54 154 -25 42 20 59 51 59 107 0 31 -7 47 -34 77 -33
36 -37 37 -98 36 -157 -3 -385 -160 -725 -501 -79 -79 -143 -142 -144 -141
-10 38 -16 133 -24 383 -3 110 -8 215 -11 233 l-5 32 -170 0 -171 0 4 -127 4
-128 -174 -265 c-500 -760 -574 -863 -698 -980 -138 -128 -174 -76 -119 173
33 150 124 441 181 577 12 30 25 66 27 80 6 29 39 116 68 176 10 22 19 44 19
48 0 4 36 101 80 215 44 115 80 216 80 224 0 13 -25 14 -182 10 -101 -3 -184
-6 -186 -8 -18 -15 -249 -632 -339 -905 -81 -245 -96 -279 -189 -420 -110
-168 -220 -281 -312 -322 -58 -26 -89 -18 -109 30 -47 111 38 514 179 852 22
52 41 100 42 105 4 18 45 124 56 142 5 10 29 61 54 113 24 52 76 163 115 246
39 84 71 155 71 158 0 3 -79 6 -175 6 l-175 0 -24 -39 c-72 -113 -263 -518
-356 -753 -110 -277 -143 -422 -144 -623 -1 -162 21 -246 84 -318 157 -178
449 -32 715 358 l48 70 -6 -50 c-3 -27 -11 -88 -17 -135 -21 -155 9 -264 81
-300 105 -54 228 -1 405 175 60 59 191 212 249 290 16 22 47 61 69 87 22 26
50 63 61 81 11 19 41 63 66 98 26 35 55 78 65 94 23 38 85 134 139 217 22 33
50 77 62 97 12 20 26 41 31 47 5 5 15 21 22 34 7 13 21 32 31 43 10 11 37 53
61 93 52 90 52 91 68 -131 6 -88 18 -212 26 -275 8 -63 16 -122 17 -131 1 -9
-55 -83 -124 -165 -229 -272 -519 -638 -519 -655 0 -5 17 -9 38 -9 36 0 40 4
117 108 77 104 247 320 309 393 17 20 52 61 79 91 26 30 62 75 79 99 l32 44 8
-30 c4 -16 20 -84 37 -150 83 -341 204 -522 366 -549 87 -15 232 25 353 95 81
48 237 207 309 316 l61 92 7 -52 c11 -91 27 -150 58 -212 39 -79 135 -178 206
-213 49 -24 67 -27 151 -27 106 1 158 14 280 75 120 60 324 223 453 360 29 30
66 68 82 85 17 17 47 51 68 77 20 26 50 60 65 75 15 15 42 48 59 73 17 25 47
63 67 85 20 22 49 58 64 80 15 22 48 68 75 103 50 67 57 91 32 112 -19 15 -9
25 -115 -115 -167 -222 -299 -374 -475 -551 -181 -181 -285 -263 -401 -316
-66 -30 -165 -31 -214 -3 -86 51 -123 187 -101 372 11 98 41 233 61 281 l10
23 42 -23 c36 -18 59 -22 134 -21 50 0 108 6 130 13 85 28 203 92 274 150 73
58 173 150 164 150 -2 0 15 19 39 43 48 48 148 194 170 249 22 52 39 142 39
198 -1 94 -54 171 -146 211 -72 32 -197 36 -294 9z m163 -55 c57 -28 75 -101
52 -211 -42 -196 -202 -455 -365 -587 -149 -121 -270 -145 -352 -69 -28 26
-29 28 -16 62 37 95 68 168 81 193 8 15 38 74 67 130 28 56 55 104 58 107 4 3
27 38 51 77 108 178 262 312 357 313 19 0 49 -7 67 -15z"/>
</g>
</svg>
